# xmcd
# 
# Track frame offsets:
#     150
#     23660
#     44830
#     68385
# 
# Disc length: 1191
# 
# Revision: 2
# Processed by: cddbd v1.5.2PL0 Copyright (c) Steve Scherf et al.
# Submitted via: fre:ac v1.0.31
# 
DISCID=2b04a504
DTITLE=MY LITTLE LOVER - ALICE
DYEAR=1996
DGENRE=J-POP
TTITLE0=ALICE
TTITLE1=めぐり逢う世界
TTITLE2=ALICE(instrumental version)
TTITLE3=めぐり逢う世界（instrumental version）
EXTD=YEAR: 1996
EXTT0=
EXTT1=
EXTT2=
EXTT3=
PLAYORDER=
